<?xml version="1.0" encoding="utf-8"?>
<!-- Generator: Adobe Illustrator 19.0.0, SVG Export Plug-In . SVG Version: 6.00 Build 0)  -->
<svg version="1.1" id="图层_1" xmlns="http://www.w3.org/2000/svg" xmlns:xlink="http://www.w3.org/1999/xlink" x="0px" y="0px"
	 viewBox="44 -9 135 66" style="enable-background:new 44 -9 135 66;" xml:space="preserve">
<style type="text/css">
	.st0{fill:#E60012;}
	.st1{fill:#6FBA2C;}
	.st2{fill:#FFFFFF;}
	.st3{opacity:0.8;fill:#FFFFFF;enable-background:new    ;}
</style>
<g>
	<g>
		<path class="st0" d="M178,3.8c0.3-1.5-0.7-2.7-2.2-2.7L69.6,1c-9.9,0-19.5,8.1-21.2,18.1l-2.9,16.7c-0.1,0.7,0,1.4,0.4,2
			c0.5,0.6,1.4,0.9,2.3,0.7c12.6-2.5,23.6-3.6,35.7-3.5c21.6,0,43,4.5,55.1,4.6c10.8,0.1,18.7-1.4,24.6-5.3
			c9.8-6.7,11.7-15.2,13.5-24.6L178,3.8z"/>
		<path class="st1" d="M165.9,35.4c-0.4,0.3-0.8,0.6-1.2,0.9c-6,4.1-13.8,5.9-25.3,5.9l-1.1,0c-5.2-0.1-11.9-0.9-19.7-1.8
			c-10.8-1.3-22.9-2.8-35.4-2.8H83c-12,0-22.8,1.1-34.9,3.5c-0.3,0.1-0.6,0.1-0.9,0.1c10-1.2,18.6-1,27.4-0.5
			c20.2,1.2,42.7,6.8,60.2,6.3C152.4,46.4,162.3,39.6,165.9,35.4"/>
		<g>
			<path class="st2" d="M67.5,20.5c-0.7,0-1.3,0.4-1.6,1.1l-3.4,7.5h1.1h0c0.6,0,1.3-0.4,1.6-1.1l3.4-7.5H67.5L67.5,20.5z"/>
			<path class="st2" d="M74.1,18.3L74.1,18.3c-0.7,0-1.3,0.4-1.6,1.1l-4.4,9.7h1.1h0c0.6,0,1.3-0.4,1.6-1.1l4.4-9.7
				C75.2,18.3,74.1,18.3,74.1,18.3z"/>
			<path class="st2" d="M78.7,18.3L78.7,18.3c-0.7,0-1.3,0.4-1.6,1.1l-4.4,9.7h1.1h0c0.7,0,1.3-0.4,1.6-1.1l4.4-9.7
				C79.9,18.3,78.7,18.3,78.7,18.3z"/>
			<path class="st2" d="M82.7,14.5H75l8.1-3.5l0,0c0.6-0.2,1.1-0.6,1.5-1.1c0.6-0.6,1-1.3,1.2-2.1c0-0.1,0-0.1,0-0.2h0H72.3
				l-0.4,2.3H81l-10,4.4l-0.4,2.5h11.7c0.4,0,0.7,0.3,0.6,0.8L81.4,26c-0.1,0.4-0.5,0.8-0.9,0.8h-2.4l-1,2.3l0,0h3
				c1.7,0,3.3-1.4,3.6-3l1.5-8.5C85.5,15.9,84.3,14.5,82.7,14.5"/>
			<path class="st2" d="M67.1,11.4c0.3,0.5,0.9,0.8,1.5,0.8h0h1.2l-1.3-3.5c0-0.1-0.1-0.2-0.1-0.3c-0.3-0.5-0.9-0.8-1.5-0.8h0h-1.2
				l1.3,3.5C67,11.2,67,11.3,67.1,11.4"/>
			<path class="st2" d="M65.9,17.5c0.3,0.5,0.9,0.8,1.5,0.8h0h1.2L67.4,15c0-0.1-0.1-0.2-0.1-0.3c-0.3-0.5-0.9-0.8-1.6-0.8h0h-1.2
				l1.3,3.4C65.8,17.3,65.8,17.4,65.9,17.5"/>
			<path class="st2" d="M110.6,8.7L110.6,8.7l0.6-1.1H92.7c-0.9,0-1.7,0.7-1.9,1.6l-2.9,16.7c-0.3,1.7,0.8,3,2.5,3l14.9,0h0
				c0.2,0,0.4,0,0.6-0.1c0.6-0.2,1.1-0.6,1.4-1.1v0l0.6-1.1h-8.4l0.6-3.6h5.2c1.7,0,3.3-1.4,3.6-3l1-5.6c0.1-0.5-0.3-1-0.8-1h-7.3
				l0.6-3.6h3.6l2.5,0v0c0.2,0,0.4,0,0.6-0.1C109.8,9.7,110.3,9.3,110.6,8.7 M92.9,9.9h7.2l-0.6,3.6h-7.2L92.9,9.9z M97.2,26.7h-6.4
				c-0.4,0-0.7-0.4-0.6-0.8l0.5-2.8h7.2L97.2,26.7z M107.4,15.8l-0.8,4.4c-0.1,0.4-0.5,0.8-0.9,0.8H91l0.9-5.1L107.4,15.8
				L107.4,15.8z"/>
			<path class="st2" d="M133.3,11.2c0.1,0,0.2,0,0.3-0.1c0.6-0.2,1.1-0.6,1.4-1.1l0,0l0.6-1.1h-6.6l0.9-1.7l-1.2,0h0
				c-0.6,0-1.1,0.3-1.5,0.9l0,0l-0.4,0.8h-6.8l-0.4,2.3h1.9l0.4,4.3h-3.9l-0.4,2.3h15.2l0,0c0.2,0,0.4,0,0.6-0.1
				c0.6-0.2,1.1-0.6,1.4-1.1l0,0l0.6-1.1l-3.9,0L133.3,11.2z M129.2,15.5h-5.3l-0.4-4.3l7.6,0L129.2,15.5z"/>
			<path class="st2" d="M117.8,7.5C117.8,7.5,117.8,7.6,117.8,7.5c-0.6,0-1.2,0.4-1.5,0.9l0,0l-1.6,3l-2.5,4.7h1.2h0
				c0.1,0,0.2,0,0.4-0.1l-2.3,13h2.3l3.1-17.7l2-3.8L117.8,7.5L117.8,7.5L117.8,7.5z"/>
			<path class="st2" d="M142.9,7.5L142.9,7.5C142.8,7.5,142.8,7.6,142.9,7.5c-0.6,0-1.2,0.4-1.5,0.9l0,0l-1.6,3l-2.5,4.7h1.3h0
				c0.1,0,0.2,0,0.4-0.1l-2.3,13h2.3l3.1-17.7l2-3.8L142.9,7.5L142.9,7.5z"/>
			<path class="st2" d="M132.1,19.7h-13.5l-1.6,9.3h11.4c1.7,0,3.3-1.4,3.6-3l0.9-5.3C133,20.1,132.6,19.7,132.1,19.7 M129.7,25.9
				c-0.1,0.4-0.5,0.8-0.9,0.8h-9.2l0.8-4.8h9.9L129.7,25.9z"/>
			<path class="st2" d="M159.1,12.1l0.5-2.8c0.1-0.4-0.2-0.8-0.6-0.8h-3.2l0.2-1h-2l-0.2,1h-2.9l-0.3,1.7h2.9l-0.3,1.8h-3.3
				l-0.3,1.7h3.3l-0.3,1.8h-2.9l-0.3,1.7h2.9l-0.3,1.8h-3.3l-0.3,1.7h3.3l-0.3,1.8H148l-0.3,1.7h3.3l-0.4,2.4h-3.1l0,0
				c-0.6,0-1.1-0.3-1.3-0.7l-1.4-2.2l3-6.2l0.3-1.8H145l4.2-6.2l0.2-1.3h-4.8l-0.4,2h2.2l-3.6,5.3l-0.4,2.3h3l-2,4H141l1.4,2.3
				l-2.3,4.8h2.1l1.4-2.8l0.5,0.8c0.7,1.1,1.9,1.8,3.5,1.8h0h0h8.2l0,0c0.5,0,1-0.4,1.1-0.9l0.2-1.1h-4.6l0.4-2.4h2.8l0,0
				c0.2,0,0.3,0,0.5-0.1c0.4-0.1,0.8-0.4,1.1-0.8l0,0l0.5-0.8h-4.5l0.3-1.8h2.4v0c0.2,0,0.3,0,0.5-0.1c0.4-0.1,0.8-0.4,1.1-0.8l0,0
				l0.5-0.8h-4.1l0.3-1.8h1.2c1.5,0,3-1.2,3.3-2.8l0.1-0.8c0.1,0,0.2,0,0.3,0c0.4-0.1,0.8-0.4,1.1-0.8v0l0.5-0.8L159.1,12.1
				L159.1,12.1z M156.9,14.6c-0.1,0.6-0.6,1-1.2,1h-1.2l0.3-1.8h2.2L156.9,14.6z M157.3,12.1h-2.2l0.3-1.8h2.2L157.3,12.1z"/>
		</g>
		<path class="st3" d="M146.7,36.2l0.1-0.8h0.2l-0.1,0.8H146.7L146.7,36.2z M147.3,32h1.4l0,0l-0.6,4.2h1.1l0.6-4.2h1.6l0.1-0.9
			h-4.2L147.3,32L147.3,32z M152.1,33.1L152.1,33.1h0.3l0.3-2h1.1l-0.3,2h2l0.3-2h1.1l-0.7,5H155l0.3-2.1h-2l-0.3,2.1h-1.1l0.3-2.1
			H152c-0.3,0-0.4-0.2-0.4-0.5C151.6,33.3,151.8,33.1,152.1,33.1z M147.4,31.2l-0.1,0.9h-0.2l0.1-0.9L147.4,31.2L147.4,31.2z
			 M146.8,35.4h-1.2c-0.6,0-1-0.3-0.9-0.9l0.5-3.3h-1.1l-0.5,3.3c-0.2,1.1,0.5,1.7,1.7,1.7l0,0h1.3L146.8,35.4L146.8,35.4z
			 M140.2,34l0.1-0.9h0.7l-0.1-0.8c0-0.1-0.1-0.2-0.2-0.2h-0.3l0.1-1h0.4c0.4,0,0.9,0.3,0.9,0.7l0.7,4.3h-1.2l-0.3-2.2L140.2,34
			L140.2,34z M116.1,33.2h0.4c0.2,0,0.4-0.1,0.6-0.1c0.1-0.1,0.2-0.2,0.2-0.4c0-0.2,0-0.3-0.1-0.4c-0.1-0.1-0.3-0.1-0.5-0.1h-0.4
			l0.1-0.9h0.4c0.3,0,0.6,0,0.8,0.1c0.2,0,0.4,0.1,0.5,0.2c0.2,0.1,0.3,0.3,0.4,0.4c0.1,0.2,0.1,0.4,0.1,0.6c0,0.3-0.1,0.5-0.3,0.7
			c-0.2,0.2-0.4,0.4-0.6,0.5c0.2,0.1,0.4,0.3,0.5,0.4c0.1,0.2,0.1,0.4,0.1,0.7c-0.1,0.5-0.2,0.8-0.6,1c-0.3,0.2-0.7,0.3-1.3,0.3
			h-0.6l0.1-0.9h0.4c0.2,0,0.4,0,0.5-0.1c0.1-0.1,0.2-0.2,0.2-0.4c0-0.2,0-0.4-0.1-0.5c-0.1-0.1-0.3-0.1-0.5-0.1c-0.2,0-0.3,0-0.4,0
			L116.1,33.2L116.1,33.2z M140.6,31.2l-0.1,1h-0.3c-0.1,0-0.2,0.1-0.2,0.2l-0.4,0.8l0,0h0.7l-0.1,0.9h-1l-0.9,2.2h-1.1l1-2.2h-0.1
			c-0.2,0-0.4-0.2-0.4-0.4c0-0.2,0.3-0.4,0.5-0.4l0,0h0.3l0.6-1.3c0.2-0.4,0.7-0.7,1.1-0.7L140.6,31.2L140.6,31.2z M132.7,33.2
			L132.7,33.2h0.1l0.1-0.6c0.1-0.9,0.8-1.4,1.7-1.4h2.5L137,32h-2.2c-0.5,0-0.7,0.3-0.9,0.8l-0.1,0.4h3l-0.1,0.9h-2.8l0,0h-0.2
			l-0.1,0.5c-0.1,0.6,0.2,0.8,0.8,0.8h2.1l-0.1,0.9H134c-0.9,0-1.5-0.5-1.3-1.5l0.1-0.6h-0.1c-0.2,0-0.4-0.2-0.4-0.4
			C132.3,33.4,132.5,33.2,132.7,33.2L132.7,33.2z M124.4,33.1L124.4,33.1h1.4l-0.1,1h-1.5c-0.3,0-0.5-0.2-0.4-0.5
			C123.9,33.3,124.1,33.1,124.4,33.1L124.4,33.1z M127.2,33.1L127.2,33.1h0.1l0.3-2h1.1l-0.3,2h2l0.3-2h1.1l-0.7,5h-1.1l0.3-2.1h-2
			l-0.3,2.1h-1.1l0.3-2.1h-0.1c-0.3,0-0.4-0.2-0.4-0.5C126.7,33.3,127,33.1,127.2,33.1L127.2,33.1z M119,31.2L119,31.2h1.2l1,1.9
			l1.5-1.9h1.2l-2.3,2.8l-0.3,2.2h-1.1l0.3-2.2L119,31.2z M115.1,32.1l-0.2,1.2h0h0h0h0l0,0h1l-0.1,0.9c-0.4,0-0.8,0-1.1,0l0,0
			l-0.2,1.2h1.1l-0.1,0.9h-2.2l0.3-2.1h-0.1c-0.2,0-0.4-0.2-0.4-0.4c0-0.2,0.3-0.4,0.5-0.4l0,0h0.1l0.3-2.1h2.2l-0.1,0.9L115.1,32.1
			L115.1,32.1z"/>
	</g>
</g>
</svg>
